<svg xmlns="http://www.w3.org/2000/svg" xmlns:xlink="http://www.w3.org/1999/xlink" xmlns:lucid="lucid" width="502" height="164"><g transform="translate(-288 -2149)" lucid:page-tab-id="0_0"><path d="M0 1000h1000v1500H0z" fill="#fff"/><path d="M326.35 2203.18c11.85 0 21.46 9.6 21.46 21.46 0 11.85-9.6 21.46-21.45 21.46h-6.15c-11.85 0-21.46-9.6-21.46-21.46 0-11.85 9.6-21.46 21.46-21.46z" stroke="#282c33" stroke-width="2" fill="#edf5ff"/><use xlink:href="#a" transform="matrix(1,0,0,1,303.7405591653502,2208.1790427991723) translate(5.307469135802469 21.90277777777778)"/><path d="M429.4 2166c8.08 0 14.63 6.55 14.63 14.63 0 8.08-6.55 14.63-14.63 14.63h-4.2c-8.07 0-14.62-6.55-14.62-14.63 0-8.08 6.55-14.63 14.63-14.63z" stroke="#282c33" stroke-width="2" fill="#edf5ff"/><use xlink:href="#b" transform="matrix(1,0,0,1,415.57894736842115,2171) translate(-1.8271604938271562 13.11111111111111)"/><path d="M429.4 2210c8.08 0 14.63 6.56 14.63 14.64 0 8.08-6.55 14.63-14.63 14.63h-4.2c-8.07 0-14.62-6.55-14.62-14.63 0-8.08 6.55-14.63 14.63-14.63z" stroke="#282c33" stroke-width="2" fill="#edf5ff"/><use xlink:href="#c" transform="matrix(1,0,0,1,415.57894736842115,2215.009842113353) translate(-2.259259259259256 13.11111111111111)"/><path d="M429.4 2254.02c8.08 0 14.63 6.55 14.63 14.63 0 8.08-6.55 14.63-14.63 14.63h-4.2c-8.07 0-14.62-6.55-14.62-14.63 0-8.08 6.55-14.63 14.63-14.63z" stroke="#282c33" stroke-width="2" fill="#edf5ff"/><use xlink:href="#d" transform="matrix(1,0,0,1,415.57894736842115,2259.019684226706) translate(-1.373456790123452 13.11111111111111)"/><path d="M540.1 2166c8.08 0 14.63 6.55 14.63 14.63 0 8.08-6.55 14.63-14.63 14.63h-4.2c-8.07 0-14.62-6.55-14.62-14.63 0-8.08 6.55-14.63 14.63-14.63z" stroke="#282c33" stroke-width="2" fill="#edf5ff"/><use xlink:href="#e" transform="matrix(1,0,0,1,526.2805857397173,2171) translate(0.7870370370370399 13.694444444444443)"/><path d="M540.1 2210c8.08 0 14.63 6.56 14.63 14.64 0 8.08-6.55 14.63-14.63 14.63h-4.2c-8.07 0-14.62-6.55-14.62-14.63 0-8.08 6.55-14.63 14.63-14.63z" stroke="#282c33" stroke-width="2" fill="#edf5ff"/><use xlink:href="#f" transform="matrix(1,0,0,1,526.2805857397173,2215.009842113353) translate(0.35493827160494007 13.694444444444443)"/><path d="M540.1 2254.02c8.08 0 14.63 6.55 14.63 14.63 0 8.08-6.55 14.63-14.63 14.63h-4.2c-8.07 0-14.62-6.55-14.62-14.63 0-8.08 6.55-14.63 14.63-14.63z" stroke="#282c33" stroke-width="2" fill="#edf5ff"/><use xlink:href="#g" transform="matrix(1,0,0,1,526.2805857397173,2259.019684226706) translate(1.240740740740744 13.694444444444443)"/><path d="M659.6 2203.18c11.85 0 21.45 9.6 21.45 21.46 0 11.85-9.6 21.46-21.46 21.46h-6.16c-11.85 0-21.46-9.6-21.46-21.46 0-11.85 9.6-21.46 21.46-21.46z" stroke="#282c33" stroke-width="2" fill="#edf5ff"/><use xlink:href="#h" transform="matrix(1,0,0,1,636.9822241110135,2208.1790427991723) translate(5.307469135802469 21.90277777777778)"/><path d="M760.9 2203.18c11.85 0 21.46 9.6 21.46 21.46 0 11.85-9.6 21.46-21.47 21.46h-6.15c-11.86 0-21.47-9.6-21.47-21.46 0-11.85 9.6-21.46 21.47-21.46z" stroke="#282c33" stroke-width="2" fill="#edf5ff"/><use xlink:href="#i" transform="matrix(1,0,0,1,738.2847307736379,2208.1790427991723) translate(5.307469135802469 21.90277777777778)"/><path d="M349.32 2224.64h43.87" stroke="#3a414a" fill="none"/><path d="M349.33 2225.1h-.57l.06-.44-.05-.5h.56z" stroke="#3a414a" stroke-width=".05" fill="#3a414a"/><path d="M407.95 2224.64l-14.26 4.64V2220z" stroke="#3a414a" fill="#3a414a"/><path d="M349.32 2224.64h23.87a6 6 0 0 0 6-6v-32a6 6 0 0 1 6-6h8" stroke="#3a414a" fill="none"/><path d="M349.33 2225.1h-.57l.06-.44-.05-.5h.56z" stroke="#3a414a" stroke-width=".05" fill="#3a414a"/><path d="M407.95 2180.63l-14.26 4.64V2176z" stroke="#3a414a" fill="#3a414a"/><path d="M349.32 2224.64h23.87a6 6 0 0 1 6 6v32a6 6 0 0 0 6 6h8" stroke="#3a414a" fill="none"/><path d="M349.33 2225.1h-.57l.06-.44-.05-.5h.56z" stroke="#3a414a" stroke-width=".05" fill="#3a414a"/><path d="M407.95 2268.65l-14.26 4.64v-9.3z" stroke="#3a414a" fill="#3a414a"/><use xlink:href="#j" transform="matrix(1,0,0,1,348.31512042338215,2201.973803498965) translate(0 12.444444444444446)"/><path d="M252.35 2266a6 6 0 0 1 6-6h228a6 6 0 0 1 6 6v48a6 6 0 0 1-6 6h-228a6 6 0 0 1-6-6z" stroke="#000" stroke-opacity="0" stroke-width="2" fill="#fff" fill-opacity="0"/><use xlink:href="#k" transform="matrix(1,0,0,1,257.3484025967575,2265) translate(82.4814814814815 29.84722222222222)"/><path d="M455.92 2181.1h-10.38v-.94h10.38zm47.97 0H487v-.94h16.9z" stroke="#3a414a" stroke-width=".05" fill="#3a414a"/><path d="M445.55 2181.1h-.57l.06-.47-.06-.47h.57z" fill="#3a414a"/><path stroke="#3a414a" stroke-width=".05" fill="#3a414a"/><path d="M518.65 2180.63l-14.26 4.64V2176z" fill="#3a414a"/><path d="M520.2 2180.63l-16.3 5.3v-10.6zm-15.34 3.98l12.26-3.97-12.26-3.98z" stroke="#3a414a" stroke-width=".05" fill="#3a414a"/><use xlink:href="#l" transform="matrix(1,0,0,1,455.92386465581757,2171.2972947189455) translate(0 12.444444444444446)"/><path d="M454.96 2225.1h-9.42v-.93h9.42zm48.93 0h-17v-.93h17z" stroke="#3a414a" stroke-width=".05" fill="#3a414a"/><path d="M445.55 2225.1h-.57l.06-.46-.06-.47h.57z" fill="#3a414a"/><path stroke="#3a414a" stroke-width=".05" fill="#3a414a"/><path d="M518.65 2224.64l-14.26 4.64V2220z" fill="#3a414a"/><path d="M520.2 2224.64l-16.3 5.3v-10.6zm-15.34 3.98l12.26-3.98-12.26-3.98z" stroke="#3a414a" stroke-width=".05" fill="#3a414a"/><use xlink:href="#m" transform="matrix(1,0,0,1,454.9560183730296,2215.3071368322985) translate(0 12.444444444444446)"/><path d="M456.9 2269.13h-11.36v-.95h11.37zm47 0h-16.83v-.95h16.82z" stroke="#3a414a" stroke-width=".05" fill="#3a414a"/><path d="M445.55 2269.13h-.57l.06-.48-.06-.47h.57z" fill="#3a414a"/><path stroke="#3a414a" stroke-width=".05" fill="#3a414a"/><path d="M518.65 2268.65l-14.26 4.64v-9.3z" fill="#3a414a"/><path d="M520.2 2268.65l-16.3 5.3v-10.6zm-15.34 3.98l12.26-3.98-12.26-3.98z" stroke="#3a414a" stroke-width=".05" fill="#3a414a"/><use xlink:href="#n" transform="matrix(1,0,0,1,456.91331587687705,2259.3169789456515) translate(0 12.444444444444446)"/><path d="M556.24 2180.63h31.12a6 6 0 0 1 6 6v32a6 6 0 0 0 6 6h15.24" stroke="#3a414a" fill="none"/><path d="M556.25 2181.1h-.57l.06-.47-.06-.47h.58z" stroke="#3a414a" stroke-width=".05" fill="#3a414a"/><path d="M629.36 2224.64l-14.26 4.64V2220z" stroke="#3a414a" fill="#3a414a"/><use xlink:href="#o" transform="matrix(1,0,0,1,562.0702768540757,2199.8111635730183) translate(0 12.444444444444446)"/><path d="M556.24 2224.64h58.36" stroke="#3a414a" fill="none"/><path d="M556.25 2225.1h-.57l.06-.46-.06-.47h.58z" stroke="#3a414a" stroke-width=".05" fill="#3a414a"/><path d="M629.36 2224.64l-14.26 4.64V2220z" stroke="#3a414a" fill="#3a414a"/><path d="M556.24 2268.65h31.12a6 6 0 0 0 6-6v-32a6 6 0 0 1 6-6h15.24" stroke="#3a414a" fill="none"/><path d="M556.25 2269.13h-.57l.06-.48-.06-.47h.58z" stroke="#3a414a" stroke-width=".05" fill="#3a414a"/><path d="M629.36 2224.64l-14.26 4.64V2220z" stroke="#3a414a" fill="#3a414a"/><path d="M682.56 2224.64h33.34" stroke="#3a414a" fill="none"/><path d="M682.57 2225.1H682l.06-.44-.04-.5h.55z" stroke="#3a414a" stroke-width=".05" fill="#3a414a"/><path d="M730.66 2224.64l-14.26 4.64V2220z" stroke="#3a414a" fill="#3a414a"/><use xlink:href="#p" transform="matrix(1,0,0,1,689.3805647316661,2201.973803498965) translate(0 12.444444444444446)"/><path d="M467.8 2266a6 6 0 0 1 6-6h228a6 6 0 0 1 6 6v48a6 6 0 0 1-6 6h-228a6 6 0 0 1-6-6z" stroke="#000" stroke-opacity="0" stroke-width="2" fill="#fff" fill-opacity="0"/><use xlink:href="#q" transform="matrix(1,0,0,1,472.7858008149225,2265) translate(88.87654320987654 29.84722222222222)"/><defs><path fill="#3a414a" d="M76-115c0 75 46 117 116 94v-68l-30-5v-13h108v13l-23 5v77C218-3 181 4 145 4 67 4 18-36 18-115c0-83 46-123 130-123 37-1 66 6 91 15v54h-15c2-41-32-51-70-51-60 0-78 41-78 105" id="r"/><path fill="#3a414a" d="M120-19l41 4V0H29v-15l41-4v-178l-41 13v-15l66-39h25v219" id="s"/><g id="a"><use transform="matrix(0.06172839506172839,0,0,0.06172839506172839,0,0)" xlink:href="#r"/><use transform="matrix(0.06172839506172839,0,0,0.06172839506172839,17.28395061728395,0)" xlink:href="#s"/></g><path fill="#3a414a" d="M23-231c66-19 162-2 134 80C139-97 87-78 49-40h116V0H15v-33c34-46 90-67 94-145 2-38-37-54-63-33l-8 34H23v-54" id="t"/><path fill="#3a414a" d="M31-163c51-5 127-20 127 40v107l17 4V0h-61l-4-13C82 13 12 12 12-46c0-51 46-52 95-53 9-45-22-69-57-44l-7 20H31v-40zM62-47c0 30 26 34 45 23v-59c-28 0-45 6-45 36" id="u"/><g id="b"><use transform="matrix(0.04320987654320987,0,0,0.04320987654320987,0,0)" xlink:href="#r"/><use transform="matrix(0.04320987654320987,0,0,0.04320987654320987,12.098765432098762,0)" xlink:href="#t"/><use transform="matrix(0.04320987654320987,0,0,0.04320987654320987,19.876543209876537,0)" xlink:href="#u"/></g><path fill="#3a414a" d="M72-18c49 15 64-22 62-69-1-34-4-62-34-63-10-1-23 2-28 6v126zm33 22C77 4 48-3 21-8v-226l-16-4v-12h67c-1 31 2 66-2 94 11-8 28-14 47-14 51 0 70 31 69 83-1 55-26 91-81 91" id="v"/><g id="c"><use transform="matrix(0.04320987654320987,0,0,0.04320987654320987,0,0)" xlink:href="#r"/><use transform="matrix(0.04320987654320987,0,0,0.04320987654320987,12.098765432098762,0)" xlink:href="#t"/><use transform="matrix(0.04320987654320987,0,0,0.04320987654320987,19.876543209876537,0)" xlink:href="#v"/></g><path fill="#3a414a" d="M109-18c15 0 31-2 42-6v14c-11 9-31 13-51 13-59 0-86-28-88-86-3-75 66-101 135-80v48h-13c-3-20-7-40-34-37-51 7-55 138 9 134" id="w"/><g id="d"><use transform="matrix(0.04320987654320987,0,0,0.04320987654320987,0,0)" xlink:href="#r"/><use transform="matrix(0.04320987654320987,0,0,0.04320987654320987,12.098765432098762,0)" xlink:href="#t"/><use transform="matrix(0.04320987654320987,0,0,0.04320987654320987,19.876543209876537,0)" xlink:href="#w"/></g><path fill="#3a414a" d="M155 0h-10L58-199v181l32 5V0H6v-13l30-5v-200l-30-5v-13h93l67 155 69-155h94v13l-30 5v200l30 5V0H212v-13l32-5v-181" id="x"/><g id="e"><use transform="matrix(0.04320987654320987,0,0,0.04320987654320987,0,0)" xlink:href="#x"/><use transform="matrix(0.04320987654320987,0,0,0.04320987654320987,14.648148148148145,0)" xlink:href="#u"/></g><g id="f"><use transform="matrix(0.04320987654320987,0,0,0.04320987654320987,0,0)" xlink:href="#x"/><use transform="matrix(0.04320987654320987,0,0,0.04320987654320987,14.648148148148145,0)" xlink:href="#v"/></g><g id="g"><use transform="matrix(0.04320987654320987,0,0,0.04320987654320987,0,0)" xlink:href="#x"/><use transform="matrix(0.04320987654320987,0,0,0.04320987654320987,14.648148148148145,0)" xlink:href="#w"/></g><path fill="#3a414a" d="M108-123c37 3 59 22 60 59C169 8 81 11 16-4l-2-57h16c4 25 8 49 41 47 31-1 44-21 45-52 2-37-24-47-61-46v-22c33 1 52-9 50-44 6-38-35-53-61-33l-7 34H21v-54c52-13 140-14 136 51-2 33-19 52-49 57" id="y"/><g id="h"><use transform="matrix(0.06172839506172839,0,0,0.06172839506172839,0,0)" xlink:href="#r"/><use transform="matrix(0.06172839506172839,0,0,0.06172839506172839,17.28395061728395,0)" xlink:href="#y"/></g><path fill="#3a414a" d="M150-47V0h-48v-47H5v-28l106-162h39v154h23v36h-23zm-48-36l2-107L34-83h68" id="z"/><g id="i"><use transform="matrix(0.06172839506172839,0,0,0.06172839506172839,0,0)" xlink:href="#r"/><use transform="matrix(0.06172839506172839,0,0,0.06172839506172839,17.28395061728395,0)" xlink:href="#z"/></g><path fill="#333" d="M109-18c15 0 31-2 42-6v14c-11 9-31 13-51 13-59 0-86-28-88-86-3-75 66-101 135-80v48h-13c-3-20-7-40-34-37-51 7-55 138 9 134" id="A"/><path fill="#333" d="M127-114c3-31-26-38-50-25v123l15 4V0H10v-12l16-4v-218l-17-4v-12h68l-1 99c31-23 102-32 102 30v105l17 4V0h-82v-12l14-4v-98" id="B"/><path fill="#333" d="M120-19l41 4V0H29v-15l41-4v-178l-41 13v-15l66-39h25v219" id="C"/><g id="j"><use transform="matrix(0.04320987654320988,0,0,0.04320987654320988,0,0)" xlink:href="#A"/><use transform="matrix(0.04320987654320988,0,0,0.04320987654320988,6.870370370370371,0)" xlink:href="#B"/><use transform="matrix(0.04320987654320988,0,0,0.04320987654320988,15.512345679012347,0)" xlink:href="#C"/></g><path fill="#3a414a" d="M92-101v83l39 5V0H8v-13l28-5v-200l-30-5v-13h197v64h-17l-5-42c-27-3-59-2-89-2v96h57l6-30h15v80h-15l-6-31H92" id="D"/><path fill="#3a414a" d="M127-114c3-31-26-38-50-25v123l15 4V0H10v-12l16-4v-133l-16-5v-11h64l2 14c31-23 102-32 102 30v105l17 4V0h-82v-12l14-4v-98" id="E"/><path fill="#3a414a" d="M13-69v-31h94v31H13" id="F"/><path fill="#3a414a" d="M140-221c-55 0-64 47-64 103S8-14 140-14c56 0 64-48 64-104s-9-103-64-103zm0 225C61 4 18-36 18-118c0-81 41-120 122-120 80 0 122 39 122 120C262-36 219 4 140 4" id="G"/><path fill="#3a414a" d="M73-51c-3 31 27 38 51 25v-123l-16-5v-11h66v149l17 4V0h-65l-2-14C94 9 22 18 22-44v-105l-17-5v-11h68v114" id="H"/><path fill="#3a414a" d="M78-41c-2 24 21 26 40 20C122 3 98 2 77 4 5 10 32-84 27-147H6v-11l25-7 21-38h26v38h35v18H78v106" id="I"/><g id="k"><use transform="matrix(0.049382716049382706,0,0,0.049382716049382706,0,0)" xlink:href="#D"/><use transform="matrix(0.049382716049382706,0,0,0.049382716049382706,10.814814814814813,0)" xlink:href="#u"/><use transform="matrix(0.049382716049382706,0,0,0.049382716049382706,19.703703703703702,0)" xlink:href="#E"/><use transform="matrix(0.049382716049382706,0,0,0.049382716049382706,29.58024691358024,0)" xlink:href="#F"/><use transform="matrix(0.049382716049382706,0,0,0.049382716049382706,35.456790123456784,0)" xlink:href="#G"/><use transform="matrix(0.049382716049382706,0,0,0.049382716049382706,49.28395061728394,0)" xlink:href="#H"/><use transform="matrix(0.049382716049382706,0,0,0.049382716049382706,59.16049382716048,0)" xlink:href="#I"/></g><path fill="#333" d="M23-231c66-19 162-2 134 80C139-97 87-78 49-40h116V0H15v-33c34-46 90-67 94-145 2-38-37-54-63-33l-8 34H23v-54" id="J"/><path fill="#333" d="M31-163c51-5 127-20 127 40v107l17 4V0h-61l-4-13C82 13 12 12 12-46c0-51 46-52 95-53 9-45-22-69-57-44l-7 20H31v-40zM62-47c0 30 26 34 45 23v-59c-28 0-45 6-45 36" id="K"/><g id="l"><use transform="matrix(0.04320987654320988,0,0,0.04320987654320988,0,0)" xlink:href="#A"/><use transform="matrix(0.04320987654320988,0,0,0.04320987654320988,6.870370370370371,0)" xlink:href="#B"/><use transform="matrix(0.04320987654320988,0,0,0.04320987654320988,15.512345679012347,0)" xlink:href="#J"/><use transform="matrix(0.04320987654320988,0,0,0.04320987654320988,23.290123456790127,0)" xlink:href="#K"/></g><path fill="#333" d="M72-18c49 15 64-22 62-69-1-34-4-62-34-63-10-1-23 2-28 6v126zm33 22C77 4 48-3 21-8v-226l-16-4v-12h67c-1 31 2 66-2 94 11-8 28-14 47-14 51 0 70 31 69 83-1 55-26 91-81 91" id="L"/><g id="m"><use transform="matrix(0.04320987654320988,0,0,0.04320987654320988,0,0)" xlink:href="#A"/><use transform="matrix(0.04320987654320988,0,0,0.04320987654320988,6.870370370370371,0)" xlink:href="#B"/><use transform="matrix(0.04320987654320988,0,0,0.04320987654320988,15.512345679012347,0)" xlink:href="#J"/><use transform="matrix(0.04320987654320988,0,0,0.04320987654320988,23.290123456790127,0)" xlink:href="#L"/></g><g id="n"><use transform="matrix(0.04320987654320988,0,0,0.04320987654320988,0,0)" xlink:href="#A"/><use transform="matrix(0.04320987654320988,0,0,0.04320987654320988,6.870370370370371,0)" xlink:href="#B"/><use transform="matrix(0.04320987654320988,0,0,0.04320987654320988,15.512345679012347,0)" xlink:href="#J"/><use transform="matrix(0.04320987654320988,0,0,0.04320987654320988,23.290123456790127,0)" xlink:href="#A"/></g><g id="o"><use transform="matrix(0.04320987654320988,0,0,0.04320987654320988,0,0)" xlink:href="#A"/><use transform="matrix(0.04320987654320988,0,0,0.04320987654320988,6.870370370370371,0)" xlink:href="#B"/><use transform="matrix(0.04320987654320988,0,0,0.04320987654320988,15.512345679012347,0)" xlink:href="#J"/></g><path fill="#333" d="M108-123c37 3 59 22 60 59C169 8 81 11 16-4l-2-57h16c4 25 8 49 41 47 31-1 44-21 45-52 2-37-24-47-61-46v-22c33 1 52-9 50-44 6-38-35-53-61-33l-7 34H21v-54c52-13 140-14 136 51-2 33-19 52-49 57" id="M"/><g id="p"><use transform="matrix(0.04320987654320988,0,0,0.04320987654320988,0,0)" xlink:href="#A"/><use transform="matrix(0.04320987654320988,0,0,0.04320987654320988,6.870370370370371,0)" xlink:href="#B"/><use transform="matrix(0.04320987654320988,0,0,0.04320987654320988,15.512345679012347,0)" xlink:href="#M"/></g><path fill="#3a414a" d="M98-18l30 5V0H12v-13l30-5v-200l-30-5v-13h116v13l-30 5v200" id="N"/><g id="q"><use transform="matrix(0.049382716049382706,0,0,0.049382716049382706,0,0)" xlink:href="#D"/><use transform="matrix(0.049382716049382706,0,0,0.049382716049382706,10.814814814814813,0)" xlink:href="#u"/><use transform="matrix(0.049382716049382706,0,0,0.049382716049382706,19.703703703703702,0)" xlink:href="#E"/><use transform="matrix(0.049382716049382706,0,0,0.049382716049382706,29.58024691358024,0)" xlink:href="#F"/><use transform="matrix(0.049382716049382706,0,0,0.049382716049382706,35.456790123456784,0)" xlink:href="#N"/><use transform="matrix(0.049382716049382706,0,0,0.049382716049382706,42.37037037037037,0)" xlink:href="#E"/></g></defs></g></svg>