<svg xmlns="http://www.w3.org/2000/svg" xmlns:xlink="http://www.w3.org/1999/xlink" xmlns:lucid="lucid" width="420" height="199"><g transform="translate(194 -1828)" lucid:page-tab-id="0_0"><path d="M-500 1500h1500v1000H-500z" fill="#fff"/><path d="M-118.33 1868.72h86.97v34.36h-86.97z" stroke="#282c33" stroke-width="2" fill-opacity="0"/><use xlink:href="#a" transform="matrix(1,0,0,1,-113.3273610453989,1873.718508965314) translate(15.722222222222221 19.34027777777778)"/><path d="M-178.33 1874.72a6 6 0 0 1 6-6h48a6 6 0 0 1 6 6v22.36a6 6 0 0 1-6 6h-48a6 6 0 0 1-6-6z" stroke="#000" stroke-opacity="0" stroke-width="2" fill="#fff" fill-opacity="0"/><use xlink:href="#b" transform="matrix(1,0,0,1,-173.3273610453989,1873.718508965314) translate(0 19.34027777777778)"/><path d="M-118.33 1840.36a6 6 0 0 1 6-6h48a6 6 0 0 1 6 6v22.36a6 6 0 0 1-6 6h-48a6 6 0 0 1-6-6z" stroke="#000" stroke-opacity="0" stroke-width="2" fill="#fff" fill-opacity="0"/><use xlink:href="#c" transform="matrix(1,0,0,1,-113.3273610453989,1839.359254482657) translate(0 19.34027777777778)"/><path d="M-118.33 1903.08h86.97v34.36h-86.97z" stroke="#282c33" stroke-width="2" fill-opacity="0"/><path d="M-178.33 1909.08a6 6 0 0 1 6-6h48a6 6 0 0 1 6 6v22.36a6 6 0 0 1-6 6h-48a6 6 0 0 1-6-6z" stroke="#000" stroke-opacity="0" stroke-width="2" fill="#fff" fill-opacity="0"/><use xlink:href="#d" transform="matrix(1,0,0,1,-173.3273610453989,1908.077763447971) translate(0 19.34027777777778)"/><path d="M10.45 1903.08h198.2v34.36H10.44z" stroke="#282c33" stroke-width="2" fill-opacity="0"/><use xlink:href="#e" transform="matrix(1,0,0,1,15.449039237502404,1908.077763447971) translate(46.166666666666664 19.34027777777778)"/><use xlink:href="#f" transform="matrix(1,0,0,1,15.449039237502404,1908.077763447971) translate(131.72222222222223 19.34027777777778)"/><path d="M10.45 1937.44h198.2v34.36H10.44z" stroke="#282c33" stroke-width="2" fill-opacity="0"/><use xlink:href="#g" transform="matrix(1,0,0,1,15.449039237502404,1942.437017930628) translate(29.53086419753086 19.34027777777778)"/><use xlink:href="#h" transform="matrix(1,0,0,1,15.449039237502404,1942.437017930628) translate(137.2469135802469 19.34027777777778)"/><path d="M10.45 1874.72a6 6 0 0 1 6-6h66.2a6 6 0 0 1 6 6v22.36a6 6 0 0 1-6 6h-66.2a6 6 0 0 1-6-6z" stroke="#000" stroke-opacity="0" stroke-width="2" fill="#fff" fill-opacity="0"/><use xlink:href="#i" transform="matrix(1,0,0,1,15.449039237502348,1873.718508965314) translate(0 19.34027777777778)"/><path d="M-29.86 1920.26h22.12" stroke="#3a414a" fill="none"/><path d="M-29.84 1920.73h-.52v-.95h.52z" stroke="#3a414a" stroke-width=".05" fill="#3a414a"/><path d="M7.02 1920.26l-14.26 4.63v-9.28z" stroke="#3a414a" fill="#3a414a"/><path d="M-118.33 2020.36a6 6 0 0 1 6-6h48a6 6 0 0 1 6 6v22.36a6 6 0 0 1-6 6h-48a6 6 0 0 1-6-6z" stroke="#000" stroke-opacity="0" stroke-width="2" fill="#fff" fill-opacity="0"/><use xlink:href="#c" transform="matrix(1,0,0,1,-113.3273610453989,2019.359254482657) translate(0 19.34027777777778)"/><path d="M32.67 2040.36a6 6 0 0 1 6-6h82.3a6 6 0 0 1 6 6v48a6 6 0 0 1-6 6h-82.3a6 6 0 0 1-6-6z" stroke="#000" stroke-opacity="0" stroke-width="2" fill="#fff" fill-opacity="0"/><use xlink:href="#j" transform="matrix(1,0,0,1,37.67430839275147,2039.359254482657) translate(0.6481481481481381 30.27777777777778)"/><path d="M10.45 1971.8h198.2v34.36H10.44z" stroke="#282c33" stroke-width="2" fill-opacity="0"/><g><use xlink:href="#k" transform="matrix(1,0,0,1,15.449039237502404,1976.796272413285) translate(9.777777777777786 19.34027777777778)"/><use xlink:href="#l" transform="matrix(1,0,0,1,15.449039237502404,1976.796272413285) translate(157 19.34027777777778)"/></g><defs><path fill="#3a414a" d="M18-187l11-25 55 34-7-58h27l-8 58 56-34 11 25-59 17 59 17-11 25-56-33 8 57H77l7-57-55 34-11-25 57-18" id="m"/><path fill="#3a414a" d="M52-115c0 90 69 126 140 93v-67l-30-5v-9h87v9l-23 5v77c-27 8-56 16-90 16C59 2 15-37 15-115c-1-82 41-123 122-123 31 0 59 4 83 10v51h-12l-5-29c-15-12-38-18-65-18-66-1-86 42-86 109" id="n"/><path fill="#3a414a" d="M32-163c41-10 102-14 102 39v112c8 3 24-2 21 12h-45l-4-17C83 13 3 13 13-46c-2-50 45-50 92-51 4-36-5-70-42-56-6 2-12 4-16 6-4 7 0 23-15 20v-36zM42-47c0 41 41 33 63 22v-59c-34 1-63-1-63 37" id="o"/><path fill="#3a414a" d="M41-130c7 48 86 23 86 84 0 56-69 57-112 41v-40c20 0 9 29 31 31 35 19 77-26 41-50-27-18-72-13-72-59 0-50 58-52 100-41v36c-19 1-8-25-28-25-21-7-50-1-46 23" id="p"/><g id="a"><use transform="matrix(0.06172839506172839,0,0,0.06172839506172839,0,0)" xlink:href="#m"/><use transform="matrix(0.06172839506172839,0,0,0.06172839506172839,11.11111111111111,0)" xlink:href="#n"/><use transform="matrix(0.06172839506172839,0,0,0.06172839506172839,27.098765432098766,0)" xlink:href="#o"/><use transform="matrix(0.06172839506172839,0,0,0.06172839506172839,36.91358024691358,0)" xlink:href="#p"/></g><path fill="#1071e5" d="M54-38c-1 25 24 26 44 20v12C71 10 25 9 25-35v-115H4c-2-14 14-10 21-15l18-38h11v38h38v15H54v112" id="q"/><path fill="#1071e5" d="M161-154L85 37C75 66 49 86 8 75V39c18-2 6 24 29 21 30-4 38-32 47-58L21-153c-7-3-20 0-17-12h77v8l-26 4 45 116 43-116-26-4v-8h62v8" id="r"/><path fill="#1071e5" d="M166-85c3 67-44 102-111 85l1 64 29 4v9H6v-9l21-4v-217c-7-3-22 1-19-12h46l1 9c11-8 26-14 45-14 47 2 64 36 66 85zM56-13c53 14 83-14 78-72 7-53-33-79-78-60v132" id="s"/><path fill="#1071e5" d="M84-170c49 0 66 33 63 87H46c-8 60 38 80 95 63v10C128-2 108 4 88 4 34 4 14-29 14-84c-1-54 22-86 70-86zm33 73c12-57-57-82-69-24-1 7-2 15-2 24h71" id="t"/><g id="b"><use transform="matrix(0.06172839506172839,0,0,0.06172839506172839,0,0)" xlink:href="#q"/><use transform="matrix(0.06172839506172839,0,0,0.06172839506172839,6.172839506172839,0)" xlink:href="#r"/><use transform="matrix(0.06172839506172839,0,0,0.06172839506172839,17.28395061728395,0)" xlink:href="#s"/><use transform="matrix(0.06172839506172839,0,0,0.06172839506172839,28.39506172839506,0)" xlink:href="#t"/></g><path fill="#1071e5" d="M13-81c0-71 46-101 114-85l-1-72-28-4v-8h57v238c8 3 24-2 21 12h-47l-2-12C80 23 13-1 13-81zm77-74c-37 1-44 33-45 74 0 38 9 66 45 66 14 0 27-3 36-7v-130c-10-1-24-3-36-3" id="u"/><use transform="matrix(0.06172839506172839,0,0,0.06172839506172839,0,0)" xlink:href="#u" id="c"/><path fill="#1071e5" d="M164-154L98 4H85L17-153c-7-3-20 0-17-12h77v8l-26 4L99-38l46-115-26-4v-8h61v8" id="v"/><path fill="#1071e5" d="M32-163c41-10 102-14 102 39v112c8 3 24-2 21 12h-45l-4-17C83 13 3 13 13-46c-2-50 45-50 92-51 4-36-5-70-42-56-6 2-12 4-16 6-4 7 0 23-15 20v-36zM42-47c0 41 41 33 63 22v-59c-34 1-63-1-63 37" id="w"/><path fill="#1071e5" d="M65-12l28 4v8H7v-8l28-4v-226l-28-4v-8h58v238" id="x"/><path fill="#1071e5" d="M124-13C89 8 26 15 26-45v-108c-8-3-24 2-21-12h50v118c-3 37 42 32 69 25v-131l-25-4v-8h54v153c8 3 24-2 21 12h-48" id="y"/><g id="d"><use transform="matrix(0.06172839506172839,0,0,0.06172839506172839,0,0)" xlink:href="#v"/><use transform="matrix(0.06172839506172839,0,0,0.06172839506172839,11.11111111111111,0)" xlink:href="#w"/><use transform="matrix(0.06172839506172839,0,0,0.06172839506172839,20.925925925925924,0)" xlink:href="#x"/><use transform="matrix(0.06172839506172839,0,0,0.06172839506172839,27.098765432098762,0)" xlink:href="#y"/><use transform="matrix(0.06172839506172839,0,0,0.06172839506172839,38.20987654320987,0)" xlink:href="#t"/></g><path fill="#3a414a" d="M166-85c3 67-44 102-111 85l1 64 29 4v9H6v-9l21-4v-217c-7-3-22 1-19-12h46l1 9c11-8 26-14 45-14 47 2 64 36 66 85zM56-13c53 14 83-14 78-72 7-53-33-79-78-60v132" id="z"/><path fill="#3a414a" d="M57-145c16-10 35-24 60-25v45c-19 1-8-30-40-17l-20 6v124l29 4v8H7v-8l21-4v-141c-8-3-24 2-21-12h48" id="A"/><path fill="#3a414a" d="M84-170c49 0 66 33 63 87H46c-8 60 38 80 95 63v10C128-2 108 4 88 4 34 4 14-29 14-84c-1-54 22-86 70-86zm33 73c12-57-57-82-69-24-1 7-2 15-2 24h71" id="B"/><path fill="#3a414a" d="M124-13C89 8 26 15 26-45v-108c-8-3-24 2-21-12h50v118c-3 37 42 32 69 25v-131l-25-4v-8h54v153c8 3 24-2 21 12h-48" id="C"/><path fill="#3a414a" d="M50-37c14 0 21 9 21 21S62 5 50 5C37 5 28-4 28-16s8-21 22-21zm0-132c12 0 21 9 21 21 0 13-9 22-21 22-13 0-22-9-22-22 0-12 9-21 22-21" id="D"/><g id="e"><use transform="matrix(0.06172839506172839,0,0,0.06172839506172839,0,0)" xlink:href="#z"/><use transform="matrix(0.06172839506172839,0,0,0.06172839506172839,11.11111111111111,0)" xlink:href="#A"/><use transform="matrix(0.06172839506172839,0,0,0.06172839506172839,18.45679012345679,0)" xlink:href="#B"/><use transform="matrix(0.06172839506172839,0,0,0.06172839506172839,28.271604938271608,0)" xlink:href="#p"/><use transform="matrix(0.06172839506172839,0,0,0.06172839506172839,36.91358024691358,0)" xlink:href="#p"/><use transform="matrix(0.06172839506172839,0,0,0.06172839506172839,45.55555555555556,0)" xlink:href="#C"/><use transform="matrix(0.06172839506172839,0,0,0.06172839506172839,56.66666666666667,0)" xlink:href="#A"/><use transform="matrix(0.06172839506172839,0,0,0.06172839506172839,64.01234567901236,0)" xlink:href="#B"/><use transform="matrix(0.06172839506172839,0,0,0.06172839506172839,73.82716049382717,0)" xlink:href="#D"/></g><path fill="#3a414a" d="M134-68c4-52-44-63-88-51H29v-117h119v27H45v75c60-10 121-2 121 64C166 3 87 15 23-4l-2-50h12c1 28 14 43 47 43 39 0 51-20 54-57" id="E"/><use transform="matrix(0.06172839506172839,0,0,0.06172839506172839,0,0)" xlink:href="#E" id="f"/><path fill="#3a414a" d="M54-38c-1 25 24 26 44 20v12C71 10 25 9 25-35v-115H4c-2-14 14-10 21-15l18-38h11v38h38v15H54v112" id="F"/><path fill="#3a414a" d="M126-118c4-37-42-32-68-25v131l24 4v8H8C5-13 21-9 28-12v-141c-7-3-23 1-20-12h48l1 13c22-15 77-30 92 2 32-22 104-36 104 29v109c8 3 24-2 21 12h-75v-8l25-4v-106c3-39-45-31-72-24 7 37 1 88 3 130l25 4v8h-78v-8l24-4v-106" id="G"/><g id="g"><use transform="matrix(0.06172839506172839,0,0,0.06172839506172839,0,0)" xlink:href="#F"/><use transform="matrix(0.06172839506172839,0,0,0.06172839506172839,6.172839506172839,0)" xlink:href="#B"/><use transform="matrix(0.06172839506172839,0,0,0.06172839506172839,15.987654320987653,0)" xlink:href="#G"/><use transform="matrix(0.06172839506172839,0,0,0.06172839506172839,33.27160493827161,0)" xlink:href="#z"/><use transform="matrix(0.06172839506172839,0,0,0.06172839506172839,44.38271604938272,0)" xlink:href="#B"/><use transform="matrix(0.06172839506172839,0,0,0.06172839506172839,54.19753086419754,0)" xlink:href="#A"/><use transform="matrix(0.06172839506172839,0,0,0.06172839506172839,61.543209876543216,0)" xlink:href="#o"/><use transform="matrix(0.06172839506172839,0,0,0.06172839506172839,71.35802469135803,0)" xlink:href="#F"/><use transform="matrix(0.06172839506172839,0,0,0.06172839506172839,77.53086419753086,0)" xlink:href="#C"/><use transform="matrix(0.06172839506172839,0,0,0.06172839506172839,88.64197530864197,0)" xlink:href="#A"/><use transform="matrix(0.06172839506172839,0,0,0.06172839506172839,95.98765432098766,0)" xlink:href="#D"/></g><path fill="#3a414a" d="M24-231c66-21 156 2 128 81C132-92 78-66 39-27h121V0H16v-26l59-54c26-25 47-47 47-97 0-48-47-57-81-37l-6 29H24v-46" id="H"/><path fill="#3a414a" d="M35-180H24v-56h146v14L65 0H42l103-209H41" id="I"/><g id="h"><use transform="matrix(0.06172839506172839,0,0,0.06172839506172839,0,0)" xlink:href="#H"/><use transform="matrix(0.06172839506172839,0,0,0.06172839506172839,11.11111111111111,0)" xlink:href="#I"/></g><path fill="#1071e5" d="M52-115c0 90 69 126 140 93v-67l-30-5v-9h87v9l-23 5v77c-27 8-56 16-90 16C59 2 15-37 15-115c-1-82 41-123 122-123 31 0 59 4 83 10v51h-12l-5-29c-15-12-38-18-65-18-66-1-86 42-86 109" id="J"/><path fill="#1071e5" d="M41-130c7 48 86 23 86 84 0 56-69 57-112 41v-40c20 0 9 29 31 31 35 19 77-26 41-50-27-18-72-13-72-59 0-50 58-52 100-41v36c-19 1-8-25-28-25-21-7-50-1-46 23" id="K"/><g id="i"><use transform="matrix(0.06172839506172839,0,0,0.06172839506172839,0,0)" xlink:href="#J"/><use transform="matrix(0.06172839506172839,0,0,0.06172839506172839,15.987654320987653,0)" xlink:href="#w"/><use transform="matrix(0.06172839506172839,0,0,0.06172839506172839,25.80246913580247,0)" xlink:href="#K"/></g><path fill="#3a414a" d="M75-17c87 13 134-18 134-103 0-78-51-106-134-100v203zm171-102C246 5 139 7 10 0v-9l31-5v-208l-31-4v-10h107c82 0 129 35 129 117" id="L"/><path fill="#3a414a" d="M125-118c4-37-41-34-68-26v132l23 4v8H8C5-13 21-9 28-12v-141c-7-3-23 1-20-12h47l2 13c31-23 98-29 98 31v109c7 3 23-1 20 12h-72v-8l22-4v-106" id="M"/><path fill="#3a414a" d="M47-200c-23 0-25-39 0-38 13 0 18 7 20 19-1 11-8 19-20 19zM65-12l28 4v8H8v-8l28-4v-141l-24-4v-8h53v153" id="N"/><path fill="#3a414a" d="M161-154L85 37C75 66 49 86 8 75V39c18-2 6 24 29 21 30-4 38-32 47-58L21-153c-7-3-20 0-17-12h77v8l-26 4 45 116 43-116-26-4v-8h62v8" id="O"/><path fill="#3a414a" d="M108-235c-52 28-62 95-58 178 3 56 21 97 58 119v15C7 49-17-153 67-223c12-10 25-19 41-27v15" id="P"/><path fill="#3a414a" d="M12-250C113-222 137-19 52 49 40 59 28 69 12 77V62C56 37 70-16 70-87c0-70-13-123-58-148v-15" id="Q"/><g id="j"><use transform="matrix(0.06172839506172839,0,0,0.06172839506172839,0,0)" xlink:href="#L"/><use transform="matrix(0.06172839506172839,0,0,0.06172839506172839,15.987654320987653,0)" xlink:href="#B"/><use transform="matrix(0.06172839506172839,0,0,0.06172839506172839,25.80246913580247,0)" xlink:href="#M"/><use transform="matrix(0.06172839506172839,0,0,0.06172839506172839,36.91358024691358,0)" xlink:href="#p"/><use transform="matrix(0.06172839506172839,0,0,0.06172839506172839,45.55555555555556,0)" xlink:href="#N"/><use transform="matrix(0.06172839506172839,0,0,0.06172839506172839,51.7283950617284,0)" xlink:href="#F"/><use transform="matrix(0.06172839506172839,0,0,0.06172839506172839,57.90123456790124,0)" xlink:href="#O"/><use transform="matrix(0.06172839506172839,0,0,0.06172839506172839,69.01234567901236,0)" xlink:href="#P"/><use transform="matrix(0.06172839506172839,0,0,0.06172839506172839,76.35802469135804,0)" xlink:href="#Q"/></g><path fill="#3a414a" d="M90-170c52 0 76 32 76 87 0 54-24 87-77 87-51 0-75-34-75-87 0-54 24-87 76-87zM89-10c39 0 46-35 46-73 0-39-7-73-46-73-39 1-44 34-44 73s6 72 44 73" id="R"/><path fill="#3a414a" d="M65-12l28 4v8H7v-8l28-4v-226l-28-4v-8h58v238" id="S"/><path fill="#3a414a" d="M45-84c0 64 52 80 104 63 1 25-30 25-55 25-56 0-80-32-80-88 0-76 62-98 131-80v46h-10c-5-15-4-31-23-35-47-10-67 21-67 69" id="T"/><path fill="#3a414a" d="M152 0h-7L59-203v189l32 5v9H10v-9l31-5v-208l-31-4v-10h72l76 180 84-180h68v10l-31 4v208l31 5v9h-96v-9l32-5v-189" id="U"/><g id="k"><use transform="matrix(0.06172839506172839,0,0,0.06172839506172839,0,0)" xlink:href="#G"/><use transform="matrix(0.06172839506172839,0,0,0.06172839506172839,17.28395061728395,0)" xlink:href="#R"/><use transform="matrix(0.06172839506172839,0,0,0.06172839506172839,28.39506172839506,0)" xlink:href="#S"/><use transform="matrix(0.06172839506172839,0,0,0.06172839506172839,34.5679012345679,0)" xlink:href="#B"/><use transform="matrix(0.06172839506172839,0,0,0.06172839506172839,44.382716049382715,0)" xlink:href="#T"/><use transform="matrix(0.06172839506172839,0,0,0.06172839506172839,54.19753086419753,0)" xlink:href="#C"/><use transform="matrix(0.06172839506172839,0,0,0.06172839506172839,65.30864197530865,0)" xlink:href="#S"/><use transform="matrix(0.06172839506172839,0,0,0.06172839506172839,71.48148148148148,0)" xlink:href="#o"/><use transform="matrix(0.06172839506172839,0,0,0.06172839506172839,81.29629629629629,0)" xlink:href="#A"/><use transform="matrix(0.06172839506172839,0,0,0.06172839506172839,88.64197530864197,0)" xlink:href="#U"/><use transform="matrix(0.06172839506172839,0,0,0.06172839506172839,108.39506172839506,0)" xlink:href="#o"/><use transform="matrix(0.06172839506172839,0,0,0.06172839506172839,118.20987654320987,0)" xlink:href="#p"/><use transform="matrix(0.06172839506172839,0,0,0.06172839506172839,126.85185185185185,0)" xlink:href="#p"/><use transform="matrix(0.06172839506172839,0,0,0.06172839506172839,135.49382716049382,0)" xlink:href="#D"/></g><path fill="#3a414a" d="M104-123c39 3 61 21 62 59C167 7 83 12 19-4l-2-50h12c2 29 16 43 51 43 38 0 54-19 54-55 2-43-34-49-75-50v-14c37 0 64-7 64-48 0-47-47-56-81-36l-6 29H24v-46c51-13 135-13 131 51-2 34-20 52-51 57" id="V"/><g id="l"><use transform="matrix(0.06172839506172839,0,0,0.06172839506172839,0,0)" xlink:href="#V"/><use transform="matrix(0.06172839506172839,0,0,0.06172839506172839,11.11111111111111,0)" xlink:href="#H"/></g></defs></g></svg>